name C:/MyDriveSym/Projects/mobilecap/Data\Session20210813_0002\mocap\ForceDataProcessed\walking1_forces.mot
datacolumns 19
datarows 9
range 1.18450000 1.18850000
endheader 
time	R_ground_force_vx	R_ground_force_vy	R_ground_force_vz	R_ground_force_px	R_ground_force_py	R_ground_force_pz	R_ground_torque_x	R_ground_torque_y	R_ground_torque_z	L_ground_force_vx	L_ground_force_vy	L_ground_force_vz	L_ground_force_px	L_ground_force_py	L_ground_force_pz	L_ground_torque_x	L_ground_torque_y	L_ground_torque_z	
          1.18450000	          0.00000000	          0.00000000	          0.00000000	          1.29009800	          0.00000000	         -0.17241000	          0.00000000	          0.00000000	          0.00000000	         43.81013500	        823.09332200	         26.30783000	          1.01252700	          0.00600000	         -0.25179000	          0.00000000	          4.32065700	          0.00000000	
          1.18500000	          0.00000000	          0.00000000	          0.00000000	          1.29115600	          0.00000000	         -0.17245400	          0.00000000	          0.00000000	          0.00000000	         44.07013000	        823.24285400	         26.35049500	          1.01269800	          0.00600000	         -0.25181000	          0.00000000	          4.32497200	          0.00000000	
          1.18550000	          0.00000000	          0.00000000	          0.00000000	          1.29221300	          0.00000000	         -0.17249800	          0.00000000	          0.00000000	          0.00000000	         44.33043600	        823.38787700	         26.39256800	          1.01286900	          0.00600000	         -0.25182900	          0.00000000	          4.32926200	          0.00000000	
          1.18600000	          0.00000000	          0.00000000	          0.00000000	          1.29327000	          0.00000000	         -0.17254200	          0.00000000	          0.00000000	          0.00000000	         44.59105000	        823.52836200	         26.43404400	          1.01304000	          0.00600000	         -0.25184900	          0.00000000	          4.33352700	          0.00000000	
          1.18650000	          0.00000000	          0.00000000	          0.00000000	          1.29432700	          0.00000000	         -0.17258500	          0.00000000	          0.00000000	          0.00000000	         44.85196800	        823.66428300	         26.47491600	          1.01321200	          0.00600000	         -0.25186800	          0.00000000	          4.33776800	          0.00000000	
          1.18700000	          0.00000000	          0.00000000	          0.00000000	          1.29538400	          0.00000000	         -0.17262900	          0.00000000	          0.00000000	          0.00000000	         45.11318500	        823.79561100	         26.51518000	          1.01338300	          0.00600000	         -0.25188700	          0.00000000	          4.34198300	          0.00000000	
          1.18750000	          0.00000000	          0.00000000	          0.00000000	          1.29644100	          0.00000000	         -0.17267300	          0.00000000	          0.00000000	          0.00000000	         45.37469900	        823.92231800	         26.55482900	          1.01355400	          0.00600000	         -0.25190600	          0.00000000	          4.34617300	          0.00000000	
          1.18800000	          0.00000000	          0.00000000	          0.00000000	          1.29749800	          0.00000000	         -0.17271700	          0.00000000	          0.00000000	          0.00000000	         45.63650500	        824.04437800	         26.59385800	          1.01372500	          0.00600000	         -0.25192500	          0.00000000	          4.35033800	          0.00000000	
          1.18850000	          0.00000000	          0.00000000	          0.00000000	          1.29855500	          0.00000000	         -0.17276100	          0.00000000	          0.00000000	          0.00000000	         45.89859900	        824.16176100	         26.63226200	          1.01389700	          0.00600000	         -0.25194300	          0.00000000	          4.35447700	          0.00000000	
